<svg width="57" height="24" viewBox="0 0 57 24" fill="none" xmlns="http://www.w3.org/2000/svg">
<path fill-rule="evenodd" clip-rule="evenodd" d="M26.4998 18.2048V11.5379H29.9877C31.417 11.5379 32.6233 11.0654 33.6068 10.1337L33.8428 9.89743C35.6392 7.96823 35.5212 4.96288 33.6068 3.17804C32.6496 2.23312 31.3383 1.7213 29.9877 1.74754H24.3887V18.2048H26.4998ZM26.5001 9.51712V3.7689H30.0411C30.8017 3.7689 31.523 4.05762 32.0607 4.58257C33.2017 5.68497 33.2279 7.52231 32.1263 8.66408C31.5886 9.2284 30.828 9.54337 30.0411 9.51712H26.5001ZM43.6904 7.82392C42.7856 6.99712 41.553 6.57716 39.9926 6.57716C37.9864 6.57716 36.4785 7.3121 35.4819 8.76884L37.3439 9.93686C38.0258 8.93945 38.9567 8.44074 40.1369 8.44074C40.8843 8.44074 41.6055 8.71634 42.1693 9.21505C42.72 9.6875 43.0347 10.3699 43.0347 11.0918V11.5773C42.2218 11.1311 41.199 10.8949 39.9402 10.8949C38.4716 10.8949 37.2915 11.2361 36.4129 11.9317C35.5344 12.6272 35.0886 13.5459 35.0886 14.7139C35.0623 15.7769 35.5213 16.7875 36.3342 17.4699C37.1603 18.2049 38.2093 18.5723 39.4419 18.5723C40.8974 18.5723 42.0513 17.9293 42.9298 16.6431H43.0216V18.2049H45.041V11.2624C45.041 9.80562 44.5951 8.65072 43.6904 7.82392ZM37.9606 16.1312C37.5278 15.8163 37.2655 15.3044 37.2655 14.7532C37.2655 14.1364 37.5541 13.6246 38.118 13.2178C38.695 12.8109 39.4163 12.6009 40.2688 12.6009C41.4491 12.5878 42.3671 12.8503 43.0229 13.3752C43.0229 14.2677 42.6688 15.042 41.9737 15.6982C41.3442 16.3281 40.4917 16.6824 39.5999 16.6824C39.0098 16.6956 38.4327 16.4987 37.9606 16.1312ZM49.578 23.1525L56.6325 6.94457H54.3378L51.0728 15.0288H51.0335L47.6898 6.94457H45.3951L50.0238 17.483L47.4013 23.1525H49.578Z" fill="#3C4043"/>
<path d="M19.2111 10.0944C19.2111 9.45135 19.1587 8.80829 19.0538 8.17834H10.1504V11.8136H15.2512C15.0414 12.9817 14.3595 14.0316 13.363 14.6878V17.05H16.4051C18.1884 15.4096 19.2111 12.9817 19.2111 10.0944Z" fill="#4285F4"/>
<path d="M10.1521 19.3334C12.6959 19.3334 14.8464 18.4934 16.4067 17.0498L13.3646 14.6875C12.5123 15.265 11.424 15.5931 10.1521 15.5931C7.68691 15.5931 5.60201 13.9264 4.8546 11.6953H1.7207V14.1363C3.32043 17.3254 6.58545 19.3334 10.1521 19.3334Z" fill="#34A853"/>
<path d="M4.85453 11.6953C4.46109 10.5273 4.46109 9.25431 4.85453 8.07317V5.64526H1.72014C0.36933 8.3094 0.36933 11.4591 1.72014 14.1232L4.85453 11.6953Z" fill="#FBBC04"/>
<path d="M10.1521 4.17555C11.5027 4.1493 12.8008 4.66113 13.7711 5.59292L16.4723 2.88942C14.7546 1.28831 12.4992 0.409016 10.1521 0.435264C6.58545 0.435264 3.32043 2.45633 1.7207 5.64541L4.8546 8.08644C5.60201 5.84227 7.68691 4.17555 10.1521 4.17555Z" fill="#EA4335"/>
</svg>
