<svg width="214" height="56" viewBox="0 0 214 56" fill="none" xmlns="http://www.w3.org/2000/svg">
<g clip-path="url(#clip0)">
<path d="M37.0284 10.1965C37.0284 15.7897 32.4587 20.1299 26.5571 20.1299C20.6556 20.1299 16.0797 15.7897 16.0797 10.1965C16.0797 4.60332 20.6556 0.317627 26.5571 0.317627C32.4587 0.317627 37.0284 4.59727 37.0284 10.1965ZM19.4704 10.1965C19.5244 12.0191 20.2932 13.7492 21.6134 15.0194C22.9337 16.2897 24.7016 17.0002 26.5419 17.0002C28.3821 17.0002 30.15 16.2897 31.4703 15.0194C32.7905 13.7492 33.5593 12.0191 33.6133 10.1965C33.5593 8.3739 32.7905 6.64388 31.4703 5.37362C30.15 4.10336 28.3821 3.39283 26.5419 3.39283C24.7016 3.39283 22.9337 4.10336 21.6134 5.37362C20.2932 6.64388 19.5244 8.3739 19.4704 10.1965Z" fill="#585858"/>
<path d="M56.8163 19.9848L46.2961 5.94131V19.9848H42.9604V0.402588H46.235L56.8163 14.4764V0.402588H60.0909V19.9848H56.8163Z" fill="#585858"/>
<path d="M70.7945 3.36868V8.65921H80.4472V11.6192H70.7945V17.0187H81.9195V19.9848H67.4589V0.402588H81.5774V3.36868H70.7945Z" fill="#585858"/>
<path d="M112.325 2.27884L110.944 5.1844C109.206 4.09083 107.21 3.46494 105.153 3.36843C103.204 3.36843 101.933 4.09482 101.933 5.40837C101.933 9.69407 112.612 7.39989 112.582 14.4459C112.582 17.9446 109.472 20.0996 105.128 20.0996C102.143 20.0822 99.2677 18.9769 97.0518 16.9943L98.4935 14.1371C100.302 15.8586 102.678 16.8734 105.183 16.9943C107.499 16.9943 108.879 16.1287 108.879 14.6154C108.879 10.251 98.2064 12.6844 98.2064 5.71708C98.2064 2.36359 101.114 0.269165 105.409 0.269165C107.861 0.270571 110.261 0.967984 112.325 2.27884Z" fill="#585858"/>
<path d="M132.535 19.9848V11.8735H122.063V19.9848H118.728V0.402588H122.063V8.9074H132.535V0.402588H135.87V19.9848H132.535Z" fill="#585858"/>
<path d="M162.733 10.1965C162.733 15.7897 158.157 20.1299 152.261 20.1299C146.366 20.1299 141.784 15.7897 141.784 10.1965C141.784 4.60332 146.36 0.317627 152.261 0.317627C158.163 0.317627 162.733 4.59727 162.733 10.1965ZM145.169 10.1965C145.185 12.0541 145.942 13.8298 147.276 15.1354C148.61 16.441 150.411 17.1703 152.286 17.1638C153.666 17.1423 155.009 16.7176 156.146 15.9428C157.283 15.168 158.164 14.0777 158.679 12.8087C159.193 11.5397 159.317 10.1484 159.037 8.80951C158.756 7.47059 158.083 6.24362 157.101 5.28251C156.119 4.3214 154.873 3.66897 153.518 3.40705C152.163 3.14514 150.761 3.28541 149.486 3.81027C148.212 4.33512 147.122 5.2212 146.354 6.35732C145.586 7.49345 145.174 8.82903 145.169 10.1965Z" fill="#585858"/>
<path d="M175.208 3.36868V19.9848H171.872V3.36868H165.635V0.402588H181.476V3.36868H175.208Z" fill="#585858"/>
<path d="M0 24.5308V28.0719L96.8504 29.5913L105.904 24.5308H0Z" fill="#585858"/>
<path d="M213.696 27.8176L191.055 0.578003L201.014 24.5307H112.014L102.96 29.5912L201.038 31.0379L191.055 55.0572L213.696 27.8176Z" fill="#EA4335"/>
<path d="M20.2155 37.0607C21.7795 37.0607 22.6592 37.8234 22.6592 39.1611C22.6592 40.4989 21.7611 41.3645 20.2155 41.3645H18.7859V43.241H17.7168V37.0607H20.2155ZM18.7859 40.4323H20.1605C21.1197 40.4323 21.6634 40.0268 21.6634 39.2217C21.6634 38.4166 21.1197 38.011 20.1605 38.011H18.7859V40.4323Z" fill="#585858"/>
<path d="M28.5487 41.8306L27.9378 43.2229H26.8809L29.63 37.0607H30.7053L33.3995 43.241H32.2754L31.6644 41.8488L28.5487 41.8306ZM30.1127 38.1684L28.9397 40.9045H31.2856L30.1127 38.1684Z" fill="#585858"/>
<path d="M41.3598 41.3524C41.2642 41.3586 41.1683 41.3586 41.0727 41.3524H39.6004V43.241H38.5496V37.0607H41.0727C42.6611 37.0607 43.5775 37.8234 43.5775 39.1611C43.6091 39.5874 43.5006 40.0123 43.2682 40.3723C43.0359 40.7324 42.6921 41.0083 42.2884 41.1587L43.6875 43.241H42.4656L41.3598 41.3524ZM41.0727 40.4323C42.0319 40.4323 42.5817 40.0268 42.5817 39.2217C42.5817 38.4166 42.0319 38.011 41.0727 38.011H39.6004V40.4323H41.0727Z" fill="#585858"/>
<path d="M51.373 40.4989L50.3161 41.6551V43.241H49.2653V37.0607H50.3161V40.2447L53.2791 37.0607H54.5009L52.1122 39.6938L54.6781 43.241H53.4135L51.373 40.4989Z" fill="#585858"/>
<path d="M59.871 43.241V37.0607H60.9157V43.241H59.871Z" fill="#585858"/>
<path d="M71.2403 43.241L67.923 38.8222V43.241H66.8783V37.0607H67.9047L71.2403 41.4856V37.0607H72.2728V43.241H71.2403Z" fill="#585858"/>
<path d="M83.4588 40.2145V42.4905C82.7474 43.0013 81.8935 43.2805 81.015 43.2896C80.5853 43.3112 80.1557 43.2454 79.7527 43.0962C79.3496 42.9471 78.9816 42.7178 78.6713 42.4224C78.3611 42.1271 78.1151 41.7719 77.9486 41.3788C77.7821 40.9857 77.6986 40.563 77.7032 40.1367C77.7078 39.7105 77.8004 39.2896 77.9753 38.9001C78.1503 38.5107 78.4038 38.1608 78.7204 37.8721C79.0369 37.5833 79.4098 37.3619 79.816 37.2213C80.2222 37.0807 80.6531 37.0241 81.0822 37.0547C81.9558 37.0593 82.8005 37.3654 83.471 37.9203L82.8601 38.683C82.3704 38.2395 81.7334 37.9896 81.07 37.9809C80.7702 37.9652 80.4704 38.0103 80.1887 38.1132C79.907 38.2161 79.6495 38.3747 79.4317 38.5795C79.2139 38.7842 79.0404 39.0307 78.9219 39.304C78.8034 39.5773 78.7423 39.8717 78.7423 40.1691C78.7423 40.4666 78.8034 40.7609 78.9219 41.0342C79.0404 41.3075 79.2139 41.554 79.4317 41.7588C79.6495 41.9635 79.907 42.1222 80.1887 42.2251C80.4704 42.328 80.7702 42.373 81.07 42.3574C81.5759 42.3434 82.0691 42.1972 82.4996 41.9336V40.2145H83.4588Z" fill="#585858"/>
<path d="M100.339 37.6479L99.9048 38.562C99.3549 38.2161 98.7227 38.0199 98.072 37.993C97.4611 37.993 97.0578 38.223 97.0578 38.6346C97.0578 39.9784 100.418 39.2399 100.406 41.4796C100.406 42.5753 99.4282 43.2532 98.0598 43.2532C97.1225 43.2482 96.2199 42.9013 95.5244 42.2786L95.9765 41.3828C96.5446 41.9234 97.2913 42.2417 98.0781 42.2786C98.8112 42.2786 99.245 42.0062 99.245 41.528C99.245 40.16 95.8849 40.9227 95.8849 38.7314C95.8849 37.6782 96.8013 37.0123 98.1514 37.0123C98.9267 37.0134 99.6855 37.2339 100.339 37.6479Z" fill="#585858"/>
<path d="M112.05 40.1419C112.082 40.7939 111.916 41.4404 111.574 41.9981C111.231 42.5558 110.728 42.9992 110.129 43.271C109.53 43.5429 108.863 43.6309 108.213 43.5236C107.563 43.4163 106.96 43.1186 106.483 42.669C106.005 42.2194 105.674 41.6383 105.533 41.0008C105.392 40.3632 105.446 39.6983 105.689 39.0917C105.933 38.4851 106.354 37.9646 106.899 37.5972C107.443 37.2299 108.086 37.0325 108.745 37.0305C109.17 37.0143 109.593 37.0825 109.991 37.2311C110.388 37.3797 110.752 37.6056 111.06 37.8956C111.368 38.1856 111.614 38.5337 111.784 38.9195C111.954 39.3053 112.045 39.7209 112.05 40.1419ZM106.552 40.1419C106.558 40.718 106.791 41.2691 107.2 41.6781C107.61 42.0872 108.164 42.3222 108.745 42.3332C109.179 42.326 109.602 42.192 109.96 41.9478C110.317 41.7036 110.594 41.3603 110.756 40.9607C110.917 40.5612 110.956 40.1233 110.867 39.702C110.779 39.2807 110.566 38.8947 110.257 38.5925C109.948 38.2903 109.556 38.0853 109.129 38.0032C108.703 37.9211 108.261 37.9655 107.86 38.131C107.459 38.2965 107.117 38.5756 106.875 38.9334C106.634 39.2911 106.504 39.7115 106.503 40.1419H106.552Z" fill="#585858"/>
<path d="M121.294 42.2786V43.241H117.555V37.0607H118.6V42.2786H121.294Z" fill="#585858"/>
<path d="M131.673 40.6686C131.673 42.2787 130.647 43.2654 128.973 43.2654C127.299 43.2654 126.26 42.2787 126.26 40.6686V37.0366H127.311V40.6686C127.292 40.891 127.322 41.1148 127.399 41.3247C127.475 41.5345 127.597 41.7252 127.756 41.8837C127.915 42.0421 128.106 42.1643 128.318 42.242C128.529 42.3196 128.755 42.3507 128.979 42.3332C129.202 42.3502 129.427 42.3185 129.637 42.2403C129.846 42.1622 130.036 42.0394 130.193 41.8808C130.349 41.7221 130.469 41.5313 130.543 41.3219C130.618 41.1125 130.645 40.8895 130.623 40.6686V37.0366H131.673V40.6686Z" fill="#585858"/>
<path d="M139.799 37.9929V43.241H138.754V37.9929H136.787V37.0607H141.772V37.9929H139.799Z" fill="#585858"/>
<path d="M146.953 43.241V37.0607H148.003V43.241H146.953Z" fill="#585858"/>
<path d="M160.063 40.1418C160.095 40.7941 159.929 41.4409 159.586 41.9987C159.243 42.5565 158.74 42.9999 158.141 43.2716C157.541 43.5433 156.874 43.6309 156.224 43.5231C155.573 43.4153 154.971 43.1171 154.493 42.6669C154.016 42.2166 153.686 41.635 153.545 40.997C153.404 40.359 153.46 39.6939 153.704 39.0874C153.948 38.4809 154.371 37.9608 154.916 37.5942C155.461 37.2276 156.105 37.0312 156.764 37.0305C157.188 37.0159 157.611 37.0853 158.007 37.2345C158.404 37.3838 158.766 37.6099 159.073 37.8996C159.38 38.1894 159.626 38.5369 159.796 38.9219C159.966 39.3069 160.057 39.7216 160.063 40.1418ZM154.565 40.1418C154.57 40.7267 154.808 41.2859 155.229 41.6967C155.649 42.1075 156.217 42.3363 156.807 42.3331C157.241 42.3259 157.664 42.1919 158.021 41.9477C158.379 41.7036 158.656 41.3602 158.818 40.9607C158.979 40.5611 159.018 40.1233 158.929 39.7019C158.841 39.2806 158.628 38.8947 158.319 38.5924C158.01 38.2902 157.617 38.0852 157.191 38.0031C156.765 37.921 156.323 37.9655 155.922 38.131C155.521 38.2964 155.179 38.5756 154.937 38.9333C154.696 39.291 154.566 39.7114 154.565 40.1418Z" fill="#585858"/>
<path d="M169.936 43.241L166.624 38.8222V43.241H165.561V37.0607H166.594L169.923 41.4856V37.0607H170.956V43.241H169.936Z" fill="#585858"/>
<path d="M181.183 37.6479L180.743 38.562C180.194 38.2143 179.561 38.0178 178.91 37.993C178.299 37.993 177.902 38.223 177.902 38.6346C177.902 39.9784 181.256 39.2399 181.25 41.4796C181.25 42.5753 180.273 43.2532 178.904 43.2532C177.965 43.2486 177.06 42.9017 176.363 42.2786L176.815 41.3828C177.386 41.9225 178.134 42.2405 178.922 42.2786C179.649 42.2786 180.083 42.0062 180.083 41.528C180.083 40.16 176.729 40.9227 176.729 38.7314C176.729 37.6782 177.64 37.0123 178.996 37.0123C179.771 37.0144 180.529 37.2348 181.183 37.6479Z" fill="#585858"/>
</g>
<defs>
<clipPath id="clip0">
<rect width="213.696" height="54.794" fill="white" transform="translate(0 0.263184)"/>
</clipPath>
</defs>
</svg>
