<svg width="118" height="31" viewBox="0 0 118 31" fill="none" xmlns="http://www.w3.org/2000/svg">
<path d="M21.116 5.82477C21.116 8.88707 18.6141 11.2633 15.3829 11.2633C12.1518 11.2633 9.64648 8.88707 9.64648 5.82477C9.64648 2.76246 12.1518 0.416016 15.3829 0.416016C18.6141 0.416016 21.116 2.75914 21.116 5.82477ZM11.5029 5.82477C11.5325 6.82266 11.9534 7.76986 12.6762 8.46533C13.3991 9.16081 14.367 9.54982 15.3746 9.54982C16.3821 9.54982 17.35 9.16081 18.0729 8.46533C18.7957 7.76986 19.2166 6.82266 19.2462 5.82477C19.2166 4.82687 18.7957 3.87968 18.0729 3.1842C17.35 2.48872 16.3821 2.09971 15.3746 2.09971C14.367 2.09971 13.3991 2.48872 12.6762 3.1842C11.9534 3.87968 11.5325 4.82687 11.5029 5.82477Z" fill="white"/>
<path d="M31.9514 11.1839L26.1915 3.495V11.1839H24.3652V0.462524H26.1581L31.9514 8.168V0.462524H33.7442V11.1839H31.9514Z" fill="white"/>
<path d="M39.6036 2.08648V4.98307H44.8885V6.60371H39.6036V9.55996H45.6946V11.1839H37.7773V0.462524H45.5073V2.08648H39.6036Z" fill="white"/>
<path d="M62.3426 1.48984L61.5867 3.08064C60.6348 2.48191 59.542 2.13923 58.4158 2.08639C57.3487 2.08639 56.653 2.48409 56.653 3.20327C56.653 5.54971 62.4998 4.29364 62.4831 8.15135C62.4831 10.0669 60.7806 11.2468 58.4024 11.2468C56.7677 11.2373 55.1937 10.6321 53.9805 9.54662L54.7699 7.98232C55.7601 8.92481 57.061 9.48044 58.4325 9.54662C59.7002 9.54662 60.4561 9.07269 60.4561 8.24414C60.4561 5.85462 54.6126 7.18692 54.6126 3.37229C54.6126 1.53623 56.2048 0.389526 58.5562 0.389526C59.8985 0.390296 61.2125 0.772134 62.3426 1.48984Z" fill="white"/>
<path d="M73.407 11.1839V6.74291H67.674V11.1839H65.8477V0.462524H67.674V5.11895H73.407V0.462524H75.2333V11.1839H73.407Z" fill="white"/>
<path d="M89.9402 5.82477C89.9402 8.88707 87.4349 11.2633 84.2071 11.2633C80.9793 11.2633 78.4707 8.88707 78.4707 5.82477C78.4707 2.76246 80.976 0.416016 84.2071 0.416016C87.4383 0.416016 89.9402 2.75914 89.9402 5.82477ZM80.3238 5.82477C80.3326 6.8418 80.7475 7.81401 81.4777 8.52883C82.2079 9.24365 83.194 9.64293 84.2205 9.63939C84.9761 9.62764 85.7113 9.39507 86.334 8.97088C86.9566 8.54668 87.439 7.94974 87.7206 7.25494C88.0021 6.56015 88.0703 5.79844 87.9167 5.06537C87.763 4.3323 87.3942 3.66053 86.8567 3.13432C86.3192 2.60811 85.6368 2.25089 84.8951 2.10749C84.1534 1.96409 83.3856 2.04089 82.6878 2.32826C81.99 2.61562 81.3934 3.10075 80.9729 3.72278C80.5523 4.34482 80.3265 5.07606 80.3238 5.82477Z" fill="white"/>
<path d="M96.7707 2.08648V11.1839H94.9444V2.08648H91.5293V0.462524H100.203V2.08648H96.7707Z" fill="white"/>
<path d="M0.84375 13.6729V15.6116L53.8699 16.4435L58.827 13.6729H0.84375Z" fill="white"/>
<path d="M117.844 15.4724L105.448 0.558594L110.9 13.6728H62.1719L57.2148 16.4435L110.913 17.2356L105.448 30.3863L117.844 15.4724Z" fill="white"/>
<path d="M11.911 20.5331C12.7673 20.5331 13.249 20.9507 13.249 21.6831C13.249 22.4155 12.7573 22.8895 11.911 22.8895H11.1283V23.9169H10.543V20.5331H11.911ZM11.1283 22.3791H11.8809C12.4061 22.3791 12.7038 22.157 12.7038 21.7162C12.7038 21.2755 12.4061 21.0534 11.8809 21.0534H11.1283V22.3791Z" fill="white"/>
<path d="M16.4737 23.1447L16.1392 23.9069H15.5605L17.0657 20.5331H17.6544L19.1295 23.9169H18.5141L18.1796 23.1546L16.4737 23.1447ZM17.33 21.1396L16.6878 22.6376H17.9722L17.33 21.1396Z" fill="white"/>
<path d="M23.4879 22.8828C23.4355 22.8862 23.383 22.8862 23.3306 22.8828H22.5245V23.9169H21.9492V20.5331H23.3306C24.2003 20.5331 24.702 20.9507 24.702 21.6831C24.7193 21.9165 24.6599 22.1491 24.5327 22.3462C24.4055 22.5434 24.2173 22.6944 23.9963 22.7768L24.7622 23.9169H24.0933L23.4879 22.8828ZM23.3306 22.3791C23.8558 22.3791 24.1568 22.157 24.1568 21.7162C24.1568 21.2755 23.8558 21.0534 23.3306 21.0534H22.5245V22.3791H23.3306Z" fill="white"/>
<path d="M28.9704 22.4155L28.3917 23.0485V23.9169H27.8164V20.5331H28.3917V22.2763L30.014 20.5331H30.683L29.3751 21.9748L30.78 23.9169H30.0876L28.9704 22.4155Z" fill="white"/>
<path d="M33.623 23.9169V20.5331H34.195V23.9169H33.623Z" fill="white"/>
<path d="M39.8492 23.9169L38.0329 21.4975V23.9169H37.4609V20.5331H38.0229L39.8492 22.9557V20.5331H40.4145V23.9169H39.8492Z" fill="white"/>
<path d="M46.538 22.2598V23.506C46.1486 23.7856 45.681 23.9385 45.2001 23.9434C44.9648 23.9552 44.7296 23.9192 44.5089 23.8376C44.2882 23.7559 44.0868 23.6304 43.9169 23.4687C43.747 23.307 43.6124 23.1125 43.5212 22.8973C43.43 22.6821 43.3843 22.4506 43.3868 22.2172C43.3893 21.9839 43.44 21.7534 43.5358 21.5402C43.6316 21.327 43.7704 21.1354 43.9437 20.9773C44.1171 20.8192 44.3212 20.698 44.5436 20.621C44.766 20.5441 45.0019 20.513 45.2369 20.5298C45.7152 20.5323 46.1776 20.6999 46.5447 21.0038L46.2102 21.4213C45.9421 21.1785 45.5934 21.0417 45.2302 21.0369C45.066 21.0283 44.9019 21.053 44.7476 21.1093C44.5934 21.1657 44.4524 21.2525 44.3332 21.3646C44.2139 21.4767 44.119 21.6117 44.0541 21.7613C43.9892 21.911 43.9557 22.0721 43.9557 22.235C43.9557 22.3978 43.9892 22.559 44.0541 22.7086C44.119 22.8582 44.2139 22.9932 44.3332 23.1053C44.4524 23.2174 44.5934 23.3043 44.7476 23.3606C44.9019 23.417 45.066 23.4416 45.2302 23.433C45.5072 23.4254 45.7772 23.3454 46.0129 23.2011V22.2598H46.538Z" fill="white"/>
<path d="M55.7803 20.8546L55.5428 21.355C55.2417 21.1657 54.8956 21.0582 54.5393 21.0435C54.2049 21.0435 53.9841 21.1694 53.9841 21.3948C53.9841 22.1305 55.8238 21.7262 55.8171 22.9525C55.8171 23.5523 55.2819 23.9235 54.5326 23.9235C54.0195 23.9208 53.5253 23.7308 53.1445 23.3899L53.3921 22.8994C53.7031 23.1954 54.1119 23.3697 54.5427 23.3899C54.9441 23.3899 55.1816 23.2408 55.1816 22.979C55.1816 22.23 53.3419 22.6476 53.3419 21.4478C53.3419 20.8712 53.8436 20.5066 54.5828 20.5066C55.0073 20.5072 55.4227 20.6279 55.7803 20.8546Z" fill="white"/>
<path d="M62.1924 22.22C62.2098 22.577 62.1188 22.931 61.9314 23.2363C61.7439 23.5417 61.4685 23.7844 61.1405 23.9332C60.8126 24.0821 60.4472 24.1303 60.0914 24.0715C59.7356 24.0128 59.4057 23.8498 59.1442 23.6036C58.8827 23.3575 58.7015 23.0393 58.6241 22.6903C58.5467 22.3412 58.5766 21.9771 58.7098 21.645C58.8431 21.3129 59.0736 21.0279 59.3718 20.8268C59.67 20.6257 60.0221 20.5176 60.3828 20.5165C60.6153 20.5077 60.8472 20.545 61.0648 20.6264C61.2825 20.7077 61.4815 20.8314 61.6502 20.9902C61.8188 21.1489 61.9537 21.3395 62.0468 21.5508C62.1399 21.762 62.1894 21.9895 62.1924 22.22ZM59.182 22.22C59.1854 22.5355 59.3127 22.8372 59.5369 23.0611C59.7611 23.2851 60.0645 23.4137 60.3828 23.4198C60.6206 23.4158 60.8519 23.3424 61.0478 23.2088C61.2436 23.0751 61.3953 22.8871 61.4837 22.6683C61.5721 22.4496 61.5934 22.2099 61.5448 21.9792C61.4962 21.7485 61.38 21.5372 61.2107 21.3717C61.0414 21.2063 60.8265 21.094 60.5931 21.0491C60.3596 21.0041 60.118 21.0285 59.8985 21.1191C59.6789 21.2097 59.4913 21.3625 59.3591 21.5583C59.2268 21.7542 59.1559 21.9844 59.1553 22.22H59.182Z" fill="white"/>
<path d="M67.2522 23.3899V23.9169H65.2051V20.5331H65.7771V23.3899H67.2522Z" fill="white"/>
<path d="M72.9362 22.5084C72.9362 23.39 72.3743 23.9302 71.4578 23.9302C70.5413 23.9302 69.9727 23.39 69.9727 22.5084V20.5199H70.548V22.5084C70.5374 22.6302 70.5537 22.7527 70.5958 22.8676C70.6378 22.9825 70.7046 23.0869 70.7915 23.1737C70.8784 23.2604 70.9833 23.3273 71.0989 23.3698C71.2146 23.4124 71.3382 23.4294 71.4611 23.4198C71.5834 23.4291 71.7063 23.4118 71.8211 23.369C71.9359 23.3262 72.0398 23.259 72.1256 23.1721C72.2114 23.0852 72.2769 22.9808 72.3175 22.8661C72.3582 22.7514 72.373 22.6293 72.3609 22.5084V20.5199H72.9362V22.5084Z" fill="white"/>
<path d="M77.3834 21.0435V23.9169H76.8114V21.0435H75.7344V20.5331H78.4638V21.0435H77.3834Z" fill="white"/>
<path d="M81.3008 23.9169V20.5331H81.8761V23.9169H81.3008Z" fill="white"/>
<path d="M88.4795 22.22C88.4969 22.5772 88.4059 22.9313 88.2183 23.2367C88.0307 23.5421 87.755 23.7848 87.4269 23.9336C87.0988 24.0824 86.7332 24.1303 86.3773 24.0713C86.0213 24.0123 85.6914 23.849 85.4301 23.6025C85.1687 23.356 84.9878 23.0376 84.9108 22.6883C84.8337 22.339 84.8641 21.9748 84.9978 21.6427C85.1316 21.3107 85.3627 21.0259 85.6613 20.8252C85.96 20.6245 86.3124 20.517 86.6733 20.5165C86.9054 20.5086 87.1367 20.5466 87.3538 20.6283C87.5709 20.71 87.7693 20.8338 87.9375 20.9924C88.1057 21.151 88.2403 21.3413 88.3333 21.5521C88.4264 21.7629 88.4761 21.99 88.4795 22.22ZM85.4691 22.22C85.4718 22.5403 85.6025 22.8464 85.8326 23.0713C86.0627 23.2962 86.3735 23.4215 86.6967 23.4198C86.9345 23.4158 87.1658 23.3424 87.3616 23.2088C87.5575 23.0751 87.7091 22.8871 87.7976 22.6683C87.886 22.4496 87.9073 22.2099 87.8587 21.9792C87.8101 21.7485 87.6939 21.5372 87.5246 21.3717C87.3553 21.2063 87.1404 21.094 86.907 21.0491C86.6735 21.0041 86.4319 21.0285 86.2123 21.1191C85.9928 21.2097 85.8052 21.3625 85.6729 21.5583C85.5407 21.7542 85.4698 21.9844 85.4691 22.22Z" fill="white"/>
<path d="M93.8852 23.9169L92.0722 21.4975V23.9169H91.4902V20.5331H92.0555L93.8785 22.9557V20.5331H94.4437V23.9169H93.8852Z" fill="white"/>
<path d="M100.043 20.8546L99.8026 21.355C99.502 21.1647 99.1556 21.0571 98.7991 21.0435C98.4646 21.0435 98.2472 21.1694 98.2472 21.3948C98.2472 22.1305 100.084 21.7262 100.08 22.9525C100.08 23.5523 99.545 23.9235 98.7958 23.9235C98.2816 23.921 97.7863 23.731 97.4043 23.3899L97.6518 22.8994C97.9646 23.1949 98.3742 23.369 98.8058 23.3899C99.2038 23.3899 99.4413 23.2408 99.4413 22.979C99.4413 22.23 97.605 22.6476 97.605 21.4478C97.605 20.8712 98.1034 20.5066 98.8459 20.5066C99.2703 20.5077 99.6856 20.6284 100.043 20.8546Z" fill="white"/>
</svg>
