<svg width="56" height="24" viewBox="0 0 56 24" fill="none" xmlns="http://www.w3.org/2000/svg">
<path fill-rule="evenodd" clip-rule="evenodd" d="M10.8159 3.10006C10.1684 3.87665 9.13237 4.48918 8.09633 4.40168C7.96683 3.35163 8.47406 2.23596 9.06762 1.54686C9.71514 0.748391 10.8483 0.179616 11.7656 0.135864C11.8736 1.22966 11.4527 2.30158 10.8159 3.10006ZM11.7546 4.60948C10.8419 4.55623 10.0091 4.88768 9.33639 5.1554L9.33638 5.1554C8.90349 5.32768 8.53691 5.47358 8.25802 5.47358C7.94505 5.47358 7.56333 5.31988 7.13474 5.14732C6.57316 4.92121 5.93112 4.6627 5.25783 4.6751C3.71456 4.69698 2.27922 5.58296 1.4914 6.99395C-0.127407 9.81595 1.07051 13.9943 2.63536 16.2912C3.40159 17.4288 4.31892 18.6757 5.52763 18.632C6.05939 18.6116 6.44191 18.4471 6.83777 18.2769C7.29353 18.0809 7.76698 17.8772 8.50624 17.8772C9.21987 17.8772 9.67261 18.0755 10.1072 18.2659C10.5205 18.4469 10.9173 18.6207 11.5064 18.6101C12.7583 18.5882 13.5461 17.4725 14.3124 16.335C15.1393 15.1141 15.5026 13.9225 15.5578 13.7417L15.5642 13.7208C15.5629 13.7195 15.5527 13.7147 15.5347 13.7064C15.2582 13.5781 13.1455 12.5978 13.1252 9.96908C13.1049 7.76265 14.801 6.64473 15.068 6.46875C15.0843 6.45804 15.0952 6.45082 15.1002 6.44706C14.021 4.82824 12.3374 4.65323 11.7546 4.60948ZM20.4207 18.49V1.43767H26.7341C29.9933 1.43767 32.2704 3.71277 32.2704 7.03792C32.2704 10.3631 29.9501 12.66 26.6478 12.66H23.0324V18.49H20.4207ZM23.0322 3.66883H26.0432C28.3095 3.66883 29.6046 4.89388 29.6046 7.04866C29.6046 9.20344 28.3095 10.4394 26.0324 10.4394H23.0322V3.66883ZM40.8934 16.4443C40.2027 17.7787 38.681 18.621 37.0406 18.621C34.6124 18.621 32.9181 17.1553 32.9181 14.9458C32.9181 12.7582 34.5585 11.5003 37.591 11.3144L40.8502 11.1175V10.1768C40.8502 8.78773 39.9545 8.03301 38.3573 8.03301C37.0406 8.03301 36.0802 8.7221 35.8859 9.77214H33.5332C33.6088 7.56268 35.6593 5.95479 38.4328 5.95479C41.4222 5.95479 43.3648 7.5408 43.3648 10.0018V18.4897H40.9474V16.4443H40.8934ZM37.742 16.5977C36.3499 16.5977 35.4649 15.9196 35.4649 14.8805C35.4649 13.8085 36.3175 13.1851 37.9471 13.0866L40.8501 12.9007V13.8632C40.8501 15.4602 39.5119 16.5977 37.742 16.5977ZM51.3831 19.157C50.3363 22.1431 49.1383 23.1275 46.5914 23.1275C46.3972 23.1275 45.7496 23.1056 45.5986 23.0619V21.0165C45.7604 21.0384 46.1597 21.0602 46.3648 21.0602C47.5195 21.0602 48.1671 20.568 48.5664 19.2883L48.8038 18.5336L44.3791 6.11896H47.1094L50.1852 16.1928H50.2391L53.3149 6.11896H55.9697L51.3831 19.157Z" fill="#292929"/>
</svg>
