<svg width="68" height="21" viewBox="0 0 68 21" fill="none" xmlns="http://www.w3.org/2000/svg">
<path d="M37.485 16.2418C40.4027 16.2418 42.1437 14.388 42.6595 12.4536L40.8863 11.8733C40.4995 13.1629 39.4033 14.388 37.485 14.388C35.5345 14.388 33.6969 12.9695 33.6969 10.2936C33.6969 7.52096 35.5829 6.15078 37.4689 6.15078C39.3872 6.15078 40.4511 7.26304 40.7896 8.64935L42.6112 8.0368C42.0953 6.03794 40.3705 4.32923 37.4689 4.32923C34.5029 4.32923 31.7141 6.56989 31.7141 10.2936C31.7141 14.0173 34.4062 16.2418 37.485 16.2418ZM43.7107 13.8722C43.7107 15.1134 44.7263 16.2418 46.3705 16.2418C47.6439 16.2418 48.4177 15.597 48.7885 15.0006C48.7885 15.6292 48.8529 15.9516 48.8691 16H50.61C50.5939 15.9194 50.5133 15.4519 50.5133 14.7427V10.8417C50.5133 9.27803 49.5944 7.90784 47.1765 7.90784C45.2421 7.90784 44.017 9.11683 43.8719 10.4709L45.5806 10.8578C45.6612 10.0679 46.2093 9.43922 47.1926 9.43922C48.2243 9.43922 48.6756 9.97118 48.6756 10.6321C48.6756 10.9061 48.5467 11.1318 48.0953 11.1963L46.0803 11.5026C44.7424 11.696 43.7107 12.4698 43.7107 13.8722ZM46.7251 14.7749C45.9836 14.7749 45.5806 14.2913 45.5806 13.7593C45.5806 13.1145 46.0481 12.7922 46.6284 12.6954L48.6756 12.3892V12.7438C48.6756 14.2752 47.7729 14.7749 46.7251 14.7749ZM57.3679 8.10128C57.2873 8.08516 57.0938 8.05292 56.8682 8.05292C55.8365 8.05292 54.966 8.55263 54.5953 9.40698V8.14964H52.7737V16H54.6436V12.2602C54.6436 10.7933 55.3045 9.95506 56.7553 9.95506C56.9487 9.95506 57.1583 9.97118 57.3679 10.0034V8.10128ZM60.1075 12.0506C60.1075 10.5515 61.0102 9.60042 62.2353 9.60042C63.4604 9.60042 64.2986 10.5354 64.2986 12.0345C64.2986 13.5337 63.4443 14.5492 62.2192 14.5492C60.9457 14.5492 60.1075 13.5498 60.1075 12.0506ZM66.1041 4.32923H64.2825V9.06847C64.0407 8.56875 63.3476 7.94008 61.9774 7.94008C59.769 7.94008 58.2376 9.79386 58.2376 12.0506C58.2376 14.4203 59.7528 16.1934 62.0096 16.1934C63.1219 16.1934 63.944 15.6454 64.3148 14.9844C64.3148 15.3068 64.3631 15.8227 64.3954 16H66.1847C66.1685 15.871 66.1041 15.2746 66.1041 14.5653V4.32923Z" fill="#292929"/>
<rect y="1.03931" width="25.1012" height="18.6466" rx="4.60567" fill="#292929"/>
<mask id="mask0" mask-type="alpha" maskUnits="userSpaceOnUse" x="0" y="1" width="26" height="19">
<rect y="1.03943" width="25.1013" height="18.6466" rx="4.60567" fill="#292929"/>
</mask>
<g mask="url(#mask0)">
<path d="M-1.30664 16.9943V20.6561H12.5518V16.9943H-1.30664ZM11.9631 20.0674H-0.717921V17.583H11.9631V20.0674Z" fill="#C4C4C4"/>
<path fill-rule="evenodd" clip-rule="evenodd" d="M-1.30664 16.9943V20.6561H12.5518V16.9943H-1.30664ZM11.9631 20.0674H-0.717921V17.583H11.9631V20.0674Z" fill="#DFDFDF"/>
<path d="M12.5527 16.9943V20.6561H26.4112V16.9943H12.5527ZM25.8225 20.0674H13.1415V17.583H25.8225V20.0674Z" fill="#C4C4C4"/>
<path fill-rule="evenodd" clip-rule="evenodd" d="M12.5527 16.9943V20.6561H26.4112V16.9943H12.5527ZM25.8225 20.0674H13.1415V17.583H25.8225V20.0674Z" fill="#DFDFDF"/>
<path d="M-1.30664 0.0692139V3.73105H12.5518V0.0692139H-1.30664ZM11.9631 3.14233H-0.717921V0.657934H11.9631V3.14233Z" fill="#C4C4C4"/>
<path fill-rule="evenodd" clip-rule="evenodd" d="M-1.30664 0.0692139V3.73105H12.5518V0.0692139H-1.30664ZM11.9631 3.14233H-0.717921V0.657934H11.9631V3.14233Z" fill="#DFDFDF"/>
<path d="M12.5527 0.0687256V3.73056H26.4112V0.0687256H12.5527ZM25.8225 3.14184H13.1415V0.657445H25.8225V3.14184Z" fill="#C4C4C4"/>
<path fill-rule="evenodd" clip-rule="evenodd" d="M12.5527 0.0687256V3.73056H26.4112V0.0687256H12.5527ZM25.8225 3.14184H13.1415V0.657445H25.8225V3.14184Z" fill="#DFDFDF"/>
<path d="M7.21875 3.73071V16.9946H17.8864V3.73071H7.21875ZM17.2976 16.4059H7.80747V4.31943H17.2976V16.4059Z" fill="#C4C4C4"/>
<path fill-rule="evenodd" clip-rule="evenodd" d="M7.21875 3.73071V16.9946H17.8864V3.73071H7.21875ZM17.2976 16.4059H7.80747V4.31943H17.2976V16.4059Z" fill="#DFDFDF"/>
<path d="M-1.30664 3.73071V10.3597H7.21802V3.73071H-1.30664ZM6.6293 9.77098H-0.717921V4.31943H6.6293V9.77098Z" fill="#C4C4C4"/>
<path fill-rule="evenodd" clip-rule="evenodd" d="M-1.30664 3.73071V10.3597H7.21802V3.73071H-1.30664ZM6.6293 9.77098H-0.717921V4.31943H6.6293V9.77098Z" fill="#DFDFDF"/>
<path d="M17.8848 3.73071V10.3597H26.4094V3.73071H17.8848ZM25.8207 9.77098H18.4735V4.31943H25.8207V9.77098Z" fill="#C4C4C4"/>
<path fill-rule="evenodd" clip-rule="evenodd" d="M17.8848 3.73071V10.3597H26.4094V3.73071H17.8848ZM25.8207 9.77098H18.4735V4.31943H25.8207V9.77098Z" fill="#DFDFDF"/>
<path d="M-1.30664 10.3595V16.9944H7.21802V10.3595H-1.30664ZM6.6293 16.4057H-0.717921V10.9482H6.6293V16.4057Z" fill="#C4C4C4"/>
<path fill-rule="evenodd" clip-rule="evenodd" d="M-1.30664 10.3595V16.9944H7.21802V10.3595H-1.30664ZM6.6293 16.4057H-0.717921V10.9482H6.6293V16.4057Z" fill="#DFDFDF"/>
<path d="M17.8848 10.3595V16.9944H26.4094V10.3595H17.8848ZM25.8207 16.4057H18.4735V10.9482H25.8207V16.4057Z" fill="#C4C4C4"/>
<path fill-rule="evenodd" clip-rule="evenodd" d="M17.8848 10.3595V16.9944H26.4094V10.3595H17.8848ZM25.8207 16.4057H18.4735V10.9482H25.8207V16.4057Z" fill="#DFDFDF"/>
</g>
</svg>
